<?xml version="1.0" encoding="utf-8"?>
<!-- Generator: Adobe Illustrator 19.2.1, SVG Export Plug-In . SVG Version: 6.00 Build 0)  -->
<svg version="1.1" id="layer" xmlns="http://www.w3.org/2000/svg" xmlns:xlink="http://www.w3.org/1999/xlink" x="0px" y="0px"
	 viewBox="0 0 652 652" style="enable-background:new 0 0 652 652;" xml:space="preserve">
<style type="text/css">
	.st0{fill:#34E0A1;}
</style>
<circle class="st0" cx="89.9" cy="325.7" r="63.8"/>
<path d="M622.7,347.2c-1.9,0-3.4,1.5-3.4,3.4s1.5,3.4,3.4,3.4c1.9,0,3.4-1.5,3.4-3.4C626.1,348.7,624.5,347.2,622.7,347.2z
	 M622.7,353.4c-1.6,0-2.8-1.3-2.8-2.8c0-1.6,1.3-2.8,2.8-2.8c1.6,0,2.8,1.3,2.8,2.8S624.3,353.4,622.7,353.4z M623.8,350
	c0-0.6-0.4-1-1.1-1h-1.1v3.1h0.5V351h0.6l0.6,1.1h0.6l-0.6-1.2C623.6,350.7,623.8,350.4,623.8,350z M622.7,350.5h-0.5v-1h0.5
	c0.4,0,0.6,0.2,0.6,0.5C623.3,350.3,623,350.5,622.7,350.5z M216.3,313.1v-8.2h-12.5v48.5h12.5v-29.1c0-5.3,3.4-7.9,8.6-7.9h6.8
	v-11.6h-5.8C221.4,304.9,217.4,307.3,216.3,313.1z M243.5,285.7c-4.3,0-7.6,3.4-7.6,7.7c0,4.2,3.3,7.6,7.6,7.6
	c4.3,0,7.6-3.4,7.6-7.6C251.1,289.1,247.8,285.7,243.5,285.7z M237.3,353.5h12.5v-48.5h-12.5V353.5z M309.2,329.2
	c0,13.9-11.2,25.1-25.1,25.1c-5.6,0-10.7-1.8-14.7-4.9v18.4h-12.5v-62.8h12.5v4.1c4.1-3.1,9.1-4.9,14.7-4.9
	C298,304.1,309.2,315.3,309.2,329.2z M296.6,329.2c0-7.5-6.1-13.6-13.6-13.6s-13.6,6.1-13.6,13.6c0,7.5,6.1,13.6,13.6,13.6
	C290.5,342.8,296.6,336.7,296.6,329.2z M526.1,324.9l-7.3-2c-4.8-1.2-6.7-2.7-6.7-5.2c0-2.5,2.6-4.2,6.4-4.2c3.6,0,6.4,2.3,6.4,5.3
	v0.3h11.5v-0.3c0-8.8-7.2-14.7-17.9-14.7c-10.6,0-18.3,5.9-18.3,14.1c0,6.3,4.2,11.1,11.5,13.1l7,1.9c5.3,1.5,7.3,3.1,7.3,6
	c0,3.1-2.8,5.1-7.1,5.1c-4.4,0-7.4-2.8-7.4-6.9v-0.3h-12.2v0.3c0,10,8,16.9,19.5,16.9c11.1,0,19.1-6.8,19.1-16.2
	C537.9,333.5,535.8,327.5,526.1,324.9z M353.5,304.9h12.5v48.5h-12.5v-4.1c-4.1,3.1-9.1,4.9-14.7,4.9c-13.9,0-25.1-11.2-25.1-25.1
	s11.2-25.1,25.1-25.1c5.6,0,10.7,1.8,14.7,4.9V304.9z M353.5,329.2L353.5,329.2c0-7.5-6.1-13.6-13.6-13.6s-13.6,6.1-13.6,13.6
	c0,7.5,6.1,13.6,13.6,13.6C347.4,342.8,353.5,336.7,353.5,329.2z M411,287.7h12.5v65.8H411v-4.1c-4.1,3.1-9.1,4.9-14.7,4.9
	c-13.9,0-25.1-11.2-25.1-25.1s11.2-25.1,25.1-25.1c5.6,0,10.7,1.8,14.7,4.9V287.7z M411,329.2c0-7.5-6.1-13.6-13.6-13.6
	c-7.5,0-13.6,6.1-13.6,13.6c0,7.5,6.1,13.6,13.6,13.6C404.9,342.8,411,336.7,411,329.2z M481.4,353.5h12.5v-48.5h-12.5V353.5z
	 M487.6,285.7c-4.3,0-7.6,3.4-7.6,7.7c0,4.2,3.3,7.6,7.6,7.6s7.6-3.4,7.6-7.6C495.2,289.1,491.9,285.7,487.6,285.7z M591.8,329.2
	c0,13.9-11.2,25.1-25.1,25.1c-13.9,0-25.1-11.2-25.1-25.1s11.2-25.1,25.1-25.1C580.6,304.1,591.8,315.3,591.8,329.2z M580.4,329.2
	c0-7.5-6.1-13.6-13.6-13.6s-13.6,6.1-13.6,13.6c0,7.5,6.1,13.6,13.6,13.6C574.3,342.8,580.4,336.7,580.4,329.2z M209.9,287.7H162
	v11.1h17.7v54.7h12.4v-54.7h17.7L209.9,287.7L209.9,287.7z M452,340.2l-11.1-35.2h-13.1l16.6,48.5h15l16.7-48.5h-13.1L452,340.2z
	 M610.1,313.1v-8.2h-12.5v48.5h12.5v-29.1c0-5.3,3.4-7.9,8.6-7.9h6.8v-11.6h-5.8C615.2,304.9,611.2,307.3,610.1,313.1z M129.3,313.3
	l7.7-8.4h-17.1c-8.5-5.8-18.9-9.2-30-9.2c-11.2,0-21.4,3.4-30,9.2H42.8l7.7,8.4c-4.7,4.3-7.7,10.5-7.7,17.4
	c0,13,10.5,23.5,23.5,23.5c6.2,0,11.8-2.4,16-6.3l7.5,8.2l7.5-8.2c4.2,3.9,9.8,6.3,16,6.3c13,0,23.6-10.5,23.6-23.5
	C137,323.8,134,317.6,129.3,313.3z M66.3,346.6c-8.8,0-15.9-7.1-15.9-15.9c0-8.8,7.1-15.9,15.9-15.9s15.9,7.1,15.9,15.9
	C82.3,339.5,75.1,346.6,66.3,346.6z M89.9,330.2c0-10.5-7.6-19.5-17.7-23.3c5.4-2.3,11.4-3.5,17.7-3.5c6.3,0,12.2,1.3,17.7,3.5
	C97.5,310.8,89.9,319.8,89.9,330.2z M113.4,346.6c-8.8,0-15.9-7.1-15.9-15.9c0-8.8,7.1-15.9,15.9-15.9s15.9,7.1,15.9,15.9
	C129.3,339.5,122.2,346.6,113.4,346.6z M113.4,322.3c-4.6,0-8.3,3.7-8.3,8.3c0,4.6,3.7,8.3,8.3,8.3c4.6,0,8.3-3.7,8.3-8.3
	C121.8,326.1,118,322.3,113.4,322.3z M74.7,330.7c0,4.6-3.7,8.3-8.3,8.3c-4.6,0-8.3-3.7-8.3-8.3c0-4.6,3.7-8.3,8.3-8.3
	C70.9,322.3,74.7,326.1,74.7,330.7z"/>
</svg>
