<?xml version="1.0" encoding="utf-8"?>
<!-- Generator: Adobe Illustrator 25.2.1, SVG Export Plug-In . SVG Version: 6.00 Build 0)  -->
<svg version="1.1" id="Layer_1" xmlns="http://www.w3.org/2000/svg" xmlns:xlink="http://www.w3.org/1999/xlink" x="0px" y="0px"
	 viewBox="0 0 60 60" style="enable-background:new 0 0 60 60;" xml:space="preserve">
<style type="text/css">
	.st0{fill:#F5BB57;}
	.st1{fill:#F6ECBB;}
	.st2{fill:#FFFFFF;stroke:#2D2D2C;stroke-width:1.8;stroke-miterlimit:10;}
</style>
<path class="st0" d="M51.3,18.7c9.3,10,1.5,11.8-6.8,20.3c-8.3,8.6-14.1,13.6-23.3,10.7C12.1,46.9-1.8,33.7,6.5,25.1
	C14.8,16.5,42.1,8.7,51.3,18.7z"/>
<path class="st1" d="M0,0"/>
<path class="st2" d="M31.5,12.5l4.2,8.6c0.1,0.3,0.4,0.5,0.7,0.5L46,23c0.8,0.1,1.1,1.1,0.5,1.7l-6.9,6.7c-0.2,0.2-0.3,0.5-0.3,0.9
	l1.6,9.4c0.1,0.8-0.7,1.4-1.4,1l-8.5-4.5c-0.3-0.1-0.6-0.1-0.9,0l-8.5,4.5c-0.7,0.4-1.6-0.2-1.4-1l1.6-9.4c0.1-0.3-0.1-0.6-0.3-0.9
	l-6.9-6.7c-0.6-0.6-0.3-1.5,0.5-1.7l9.5-1.4c0.3,0,0.6-0.2,0.7-0.5l4.2-8.6C30.1,11.7,31.2,11.7,31.5,12.5z"/>
</svg>
